<?xml version="1.0" encoding="UTF-8" standalone="no"?>
<svg
   width="128"
   height="128"
   version="1.1"
   id="svg6"
   sodipodi:docname="icon.svg"
   inkscape:version="1.4.2 (ebf0e940d0, 2025-05-08)"
   xmlns:inkscape="http://www.inkscape.org/namespaces/inkscape"
   xmlns:sodipodi="http://sodipodi.sourceforge.net/DTD/sodipodi-0.dtd"
   xmlns="http://www.w3.org/2000/svg"
   xmlns:svg="http://www.w3.org/2000/svg">
  <defs
     id="defs6" />
  <sodipodi:namedview
     id="namedview6"
     pagecolor="#505050"
     bordercolor="#eeeeee"
     borderopacity="1"
     inkscape:showpageshadow="0"
     inkscape:pageopacity="0"
     inkscape:pagecheckerboard="0"
     inkscape:deskcolor="#505050"
     inkscape:zoom="4.3420776"
     inkscape:cx="63.564042"
     inkscape:cy="73.006526"
     inkscape:window-width="2560"
     inkscape:window-height="995"
     inkscape:window-x="0"
     inkscape:window-y="0"
     inkscape:window-maximized="1"
     inkscape:current-layer="svg6" />
  <rect
     style="fill:none;stroke:#a800ff;stroke-width:10;stroke-linecap:square;stroke-linejoin:round;stroke-miterlimit:1;stroke-opacity:1;stroke-dasharray:none"
     id="rect6"
     width="76.691399"
     height="102.71581"
     x="26.945625"
     y="13.357661" />
  <path
     d="M 87.969729,23.672355 86.264222,30.087486 72.97083,39.710181 H 83.697992 L 80.398554,46.12531 H 62.865302 l 1.705507,-6.415129 13.293393,-9.622695 H 67.137039 l 3.299439,-6.415131 z"
     id="text7"
     style="font-style:italic;font-size:122.8px;font-family:Affirmative;-inkscape-font-specification:'Affirmative, Italic';fill:#a800ff;stroke-width:2.66648;stroke-linecap:square;stroke-linejoin:bevel;stroke-miterlimit:1;fill-opacity:1"
     aria-label="Z" />
  <path
     style="fill:#a800ff;fill-opacity:1;stroke:none;stroke-width:10;stroke-linecap:square;stroke-linejoin:bevel;stroke-miterlimit:1;stroke-dasharray:none;stroke-opacity:1"
     id="path9"
     sodipodi:type="arc"
     sodipodi:cx="46.406357"
     sodipodi:cy="34.660828"
     sodipodi:rx="5.6424603"
     sodipodi:ry="5.6424603"
     sodipodi:start="0"
     sodipodi:end="6.2453843"
     sodipodi:open="true"
     sodipodi:arc-type="arc"
     d="m 52.048817,34.660828 a 5.6424603,5.6424603 0 0 1 -5.589138,5.642208 5.6424603,5.6424603 0 0 1 -5.694775,-5.535569 5.6424603,5.6424603 0 0 1 5.481506,-5.746832 5.6424603,5.6424603 0 0 1 5.798376,5.426953" />
  <path
     d="M 87.969729,51.769504 86.264222,58.184635 72.97083,67.80733 h 10.727162 l -3.299438,6.415129 H 62.865302 L 64.570809,67.80733 77.864202,58.184635 H 67.137039 l 3.299439,-6.415131 z"
     id="path10"
     style="font-style:italic;font-size:122.8px;font-family:Affirmative;-inkscape-font-specification:'Affirmative, Italic';fill:#a800ff;stroke-width:2.66648;stroke-linecap:square;stroke-linejoin:bevel;stroke-miterlimit:1;fill-opacity:1"
     aria-label="Z" />
  <path
     style="fill:#a800ff;fill-opacity:1;stroke:none;stroke-width:10;stroke-linecap:square;stroke-linejoin:bevel;stroke-miterlimit:1;stroke-dasharray:none;stroke-opacity:1"
     id="path11"
     sodipodi:type="arc"
     sodipodi:cx="46.406357"
     sodipodi:cy="62.757977"
     sodipodi:rx="5.6424603"
     sodipodi:ry="5.6424603"
     sodipodi:start="0"
     sodipodi:end="6.2453843"
     sodipodi:open="true"
     sodipodi:arc-type="arc"
     d="m 52.048817,62.757977 a 5.6424603,5.6424603 0 0 1 -5.589138,5.642208 5.6424603,5.6424603 0 0 1 -5.694775,-5.535569 5.6424603,5.6424603 0 0 1 5.481506,-5.746832 5.6424603,5.6424603 0 0 1 5.798376,5.426953" />
  <path
     d="M 87.969729,79.406044 86.264222,85.821175 72.97083,95.44387 H 83.697992 L 80.398554,101.859 H 62.865302 l 1.705507,-6.41513 13.293393,-9.622695 H 67.137039 l 3.299439,-6.415131 z"
     id="path12"
     style="font-style:italic;font-size:122.8px;font-family:Affirmative;-inkscape-font-specification:'Affirmative, Italic';fill:#a800ff;stroke-width:2.66648;stroke-linecap:square;stroke-linejoin:bevel;stroke-miterlimit:1;fill-opacity:1"
     aria-label="Z" />
  <path
     style="fill:#a800ff;fill-opacity:1;stroke:none;stroke-width:10;stroke-linecap:square;stroke-linejoin:bevel;stroke-miterlimit:1;stroke-dasharray:none;stroke-opacity:1"
     id="path13"
     sodipodi:type="arc"
     sodipodi:cx="46.406357"
     sodipodi:cy="90.394516"
     sodipodi:rx="5.6424603"
     sodipodi:ry="5.6424603"
     sodipodi:start="0"
     sodipodi:end="6.2453843"
     sodipodi:open="true"
     sodipodi:arc-type="arc"
     d="m 52.048817,90.394516 a 5.6424603,5.6424603 0 0 1 -5.589138,5.642208 5.6424603,5.6424603 0 0 1 -5.694775,-5.535569 5.6424603,5.6424603 0 0 1 5.481506,-5.746832 5.6424603,5.6424603 0 0 1 5.798376,5.426953" />
</svg>
